<svg width="264" height="43" id="Capa_1" xmlns="http://www.w3.org/2000/svg" viewBox="0 0 2724 607"><path d="M497.3 334.7h-179c10.4 7.3 18.5 16.4 24.4 27.3 4.1 7.3 6.3 11.6 6.8 13 2.3 5.9 3.4 13.4 3.4 22.5v115.7l-5.4 2h-43.4c-43.4 0-78.4-21.7-105.1-65.1-24.9-40.7-37.3-91.1-37.3-151.2 0-47.5 8.8-85.9 26.4-115.3 24.4-40.7 64.9-63.5 121.4-68.5h8.8c15.8 0 34.4 3.3 55.6 10 17.6 5.4 30.7 10.9 39.3 16.7l31.9 19.4V46c-34.4-11.3-77.9-17-130.4-17-83.3 0-156 27.2-218 81.7s-93 122.2-93 203.1c0 89.1 31.8 160.3 95.6 213.6 58.8 49.3 131.1 73.9 217 73.9 29.8 0 64.7-3.2 104.7-9.5s65.5-11.5 76.3-15.6V334.7zm2093.2-202.3c4.1 3.7 7.8 8.4 11.2 14 2.2 3.4 5.1 8.8 8.7 16.2 3.5 7.5 6.1 14 7.8 19.5 1.7 5.6 2.5 11.7 2.5 18.4V416l-212.2-283.7h-144.1c3.4 2.2 8.1 7.4 14.2 15.4s11.3 16.3 15.4 24.8c4.1 8.6 6.8 16.7 8.1 24.6 1.3 7.8 2 17.7 2 29.6v290.4c0 19-4.7 35.9-14 50.8-4.1 7.1-9.9 14.2-17.3 21.2h137.4c-7.5-6.7-13.4-13.8-17.9-21.2-9.3-14.5-14-31.3-14-50.3V304.9l159.1 212.7c7.8 10.8 17.5 20.9 29 30.2 13.8 11.5 31.1 22.7 51.9 33.5 12.6 7.1 24.5 12.4 35.5 15.9s23.9 6.8 38.8 9.8V201c0-9.3 1.3-17.7 4-25.1 1.5-4.5 3.6-9.1 6.3-14 4.9-8.9 8-14.3 9.1-16.2 3-4.5 7-8.9 11.9-13.4h-133.4zM2063.6.4l-125.6 74 31.3 17.9 119.5-47L2063.6.4zm47 487.7c-20.9 29.8-51.4 44.7-91.6 44.7-37.2 0-67.9-19.7-92.1-59.2-22.3-36.5-33.5-79.3-33.5-128.4 0-43.6 9.7-78.9 29-106.1 20.8-29.4 49.9-44.1 87.1-44.1 42.4 0 75.2 20.1 98.3 60.3 19.7 34.6 29.6 78.2 29.6 130.7 0 42.3-9 76.4-26.8 102.1m91.3-298.8c-47.5-41.7-108.4-62.5-182.9-62.5-75.6 0-137.5 22.8-185.7 68.4-48.2 45.6-72.3 102.7-72.3 171.2 0 65.5 22 120.6 65.9 165.3 46.2 46.9 105.3 70.4 177.6 70.4 80 0 144.4-21.8 193.2-65.3 50.3-44.7 75.4-105.4 75.4-182 0-68.7-23.8-123.8-71.2-165.5m-459.6 390.3c-3.7-3.3-6.9-7.3-9.5-11.7-4.1-6.3-6.6-11.9-7.5-16.8-.9-4.8-1.4-11.7-1.4-20.7V184.3c0-1.5 1-5.9 3.1-13.4 2-7.4 4.4-12.8 7-16.2 4.8-7.1 8-11.3 9.5-12.8 3-3.3 6.9-6.5 11.7-9.5H1562c5.2 2.6 9.5 5.6 12.8 8.9 3.4 3.4 6.7 7.4 10.1 12 3.3 4.7 5.8 10.1 7.3 16.5 1.5 6.3 2.2 11.2 2.2 14.5v346.8c0 10.4-1.3 19.5-3.9 27.1-2.6 7.6-7.3 14.6-14 20.9-4.1 4.1-8.8 7.5-14 10.1h192.6c-4.8-3-9.1-6.2-12.8-9.6m-535.2-447.2l-26.2 98.3c9.3-7.8 19-13.8 29-17.9 13.4-6.3 24.2-9.5 32.4-9.5h49.1l5.6 2.2v324.9c0 18.6-5.4 34.5-16.1 47.5-4.3 5.2-8.6 9.3-12.9 12.3h193.2c-9.3-6-17-13.5-23.2-22.6-6.1-9.1-9.7-15.7-10.6-19.6-.9-3.9-1.4-12.2-1.4-24.9V207.8l10.1-4.5h34.6c14.1 0 25.5 4.3 34.1 12.8 1.1 1.1 3.2 3.3 6.1 6.7 3 3.3 5.2 6.9 6.7 10.6l25.7-101.1h-336.2zm-22 237.8c-16-21.2-36.7-37.6-62-49.1l-45.8-21.2c-23.5-11.2-37.4-18-41.9-20.7-21.6-12.3-32.4-25.5-32.4-39.7 0-4.5 1.1-9.5 3.3-15.1 4.8-11.5 12.8-19.6 23.7-24 11-4.5 23.9-6.7 38.8-6.7 11.2 0 22.9 1.9 35.2 5.6 12.3 3.7 22.3 7.6 30.2 11.7l27.4 15.1v-81l-43.6-10.6c-13.4-3.4-26.2-5.6-38.2-6.7-12.1-1.1-25.2-1.7-39.4-1.7-46.2 0-85.3 11.4-117.5 34.3s-48.3 53.1-48.3 90.7c0 34.3 8.7 62.4 26.3 84.3 16.4 20.5 45.2 40.8 86.6 60.9l48 23.5c15.3 7.5 26.8 15.3 34.6 23.5 9.7 10.4 14.5 22.3 14.5 35.7 0 16.4-6 28.7-18.1 36.9-12.1 8.2-28 12.3-47.7 12.3-16.8 0-34.6-2.1-53.6-6.4-19-4.3-34.8-10-47.5-17L868 476.3l20.7 95.5 17.3 6.1c20.8 7.5 40.9 12.8 60.3 16.2 19.3 3.4 38.5 5 57.5 5 55.5 0 100.8-13.8 136-41.3 35.2-27.5 52.8-64.2 52.8-110-.1-27.9-9.2-53.7-27.5-77.6M822.8 511.5c-10.8 6-28.7 10.4-53.6 13.4-1.9 0-4.7.4-8.4 1.1h-8.9c-14.2 0-27.6-1.1-40.2-3.4-12.7-2.2-23.5-5-32.4-8.4V383.1H725c3.7 0 8.7.7 15.1 2 6.3 1.3 11.5 3.4 15.6 6.4 8.6 6 14.3 13.4 17.3 22.3V310.5l-8.9 4.5h-84.3V203.3h68.7c3.3 0 8.2 1 14.5 3.1 6.3 2 11.9 4.8 16.8 8.4 4.8 3.5 8.3 6.4 10.3 8.7 2 2.2 4.2 6 6.4 11.2V128.5l-7.8 3.9H519.5c4.1 2.2 8.2 5.6 12.3 10.1 2.6 2.6 5.9 6.7 10 12.3 3 4.1 5.3 9.4 7 15.9 1.7 6.5 2.5 11.1 2.5 13.7V530c0 10.4-1.2 19.3-3.6 26.5-2.4 7.3-6.8 14.2-13.1 20.9-2.2 2.6-4.1 4.5-5.6 5.6-.4.4-4.1 2.4-11.2 6.1h310.5l29-105.5c-17.8 15.6-29.3 24.9-34.5 27.9" fill="#fff"/></svg>